<?xml version="1.0" standalone="no"?>
<!DOCTYPE svg PUBLIC "-//W3C//DTD SVG 20010904//EN"
 "http://www.w3.org/TR/2001/REC-SVG-20010904/DTD/svg10.dtd">
<svg version="1.0" xmlns="http://www.w3.org/2000/svg"
 width="233.000000pt" height="233.000000pt" viewBox="0 0 233.000000 233.000000"
 preserveAspectRatio="xMidYMid meet">
<metadata>
Created by potrace 1.14, written by Peter Selinger 2001-2017
</metadata>
<g transform="translate(0.000000,233.000000) scale(0.100000,-0.100000)"
fill="#000000" stroke="none">
<path d="M1058 2185 c-2 -2 -21 -5 -43 -8 -74 -10 -155 -30 -155 -38 0 -5 -3
-8 -7 -7 -17 6 -143 -51 -143 -64 0 -5 -3 -7 -7 -6 -17 3 -51 -16 -88 -50 -8
-7 -15 -11 -15 -8 0 3 -13 -7 -29 -22 -58 -54 -89 -77 -103 -77 -16 0 -59 41
-51 49 4 3 -1 6 -10 6 -10 0 -17 5 -17 12 0 6 -3 8 -6 5 -4 -3 -15 -2 -25 3
-14 8 -21 5 -32 -10 -7 -11 -17 -17 -20 -14 -3 4 -12 -5 -18 -20 -7 -14 -16
-26 -21 -26 -4 0 -7 -6 -6 -12 2 -7 -3 -12 -10 -10 -8 1 -11 -2 -8 -7 4 -5 -1
-17 -10 -25 -8 -9 -13 -16 -10 -16 3 0 -6 -16 -19 -36 -14 -20 -25 -41 -25
-46 0 -5 -5 -6 -12 -2 -6 4 -8 3 -5 -3 3 -5 0 -21 -8 -36 -8 -15 -12 -27 -9
-27 2 0 -2 -10 -11 -23 -8 -13 -12 -27 -8 -30 3 -4 2 -7 -4 -7 -9 0 -38 -92
-35 -110 0 -3 -3 -9 -7 -15 -4 -5 -7 -22 -6 -37 0 -16 -2 -28 -6 -28 -19 0
-16 -319 5 -415 3 -11 5 -20 6 -20 1 0 4 -11 7 -25 7 -39 11 -55 13 -55 1 0 4
-11 6 -25 2 -13 10 -28 17 -32 6 -4 8 -8 3 -8 -5 0 -3 -7 4 -15 7 -8 9 -15 6
-15 -9 0 73 -160 91 -178 7 -7 13 -17 13 -22 0 -5 11 -21 25 -35 14 -14 23
-25 18 -25 -4 0 10 -17 30 -38 21 -21 35 -41 32 -45 -3 -4 -2 -5 1 -3 8 6 62
-48 57 -56 -2 -5 2 -8 11 -8 8 0 16 -4 18 -8 5 -12 128 -104 128 -96 0 4 10
-2 22 -13 18 -16 158 -92 171 -92 3 0 33 -10 55 -18 21 -8 40 -12 72 -18 14
-2 25 -4 25 -5 0 -3 41 -11 80 -15 22 -2 40 -5 40 -5 0 -1 9 -4 20 -6 36 -8
280 -3 280 6 0 2 38 8 87 13 15 1 30 6 34 10 4 4 16 7 26 7 37 0 152 47 248
100 14 8 29 14 33 15 4 0 12 7 17 15 5 8 10 11 10 5 0 -7 3 -7 8 0 4 6 25 23
47 39 22 17 51 40 64 53 13 13 28 23 33 23 5 0 6 5 3 10 -3 6 1 10 9 10 8 0
18 9 21 20 4 11 10 18 14 15 4 -2 14 7 21 20 7 13 17 22 22 19 4 -3 8 1 8 8 0
8 9 20 20 28 11 8 20 20 20 28 0 7 7 15 15 18 8 4 15 11 15 17 0 6 6 18 14 26
20 22 96 177 96 195 0 8 4 16 9 18 6 2 12 14 14 28 3 14 10 37 16 53 6 15 8
27 5 27 -2 0 0 9 6 20 6 10 12 47 15 80 2 33 7 64 9 69 9 13 10 184 2 208 -4
12 -9 39 -11 60 -2 21 -6 49 -9 63 -34 150 -32 148 -108 148 -116 0 -115 0
-126 30 -5 16 -16 35 -23 43 -8 8 -25 35 -38 61 -14 25 -36 61 -50 79 -37 46
-183 189 -193 189 -5 0 -14 5 -21 10 -28 23 -87 59 -87 52 0 -4 -4 -2 -8 4 -6
9 -101 53 -127 59 -5 1 -17 5 -25 8 -16 7 -74 18 -102 20 -10 1 -18 4 -18 7 0
5 -277 10 -282 5z"/>
</g>
</svg>
