<svg width="40" height="39" viewBox="0 0 40 39" fill="none" xmlns="http://www.w3.org/2000/svg">
<path d="M19.9999 2H14.1666C12.6195 2 11.1358 2.61458 10.0418 3.70854C8.94783 4.80251 8.33325 6.28624 8.33325 7.83333C8.33325 9.38043 8.94783 10.8642 10.0418 11.9581C11.1358 13.0521 12.6195 13.6667 14.1666 13.6667M19.9999 2V13.6667M19.9999 2H25.8333C26.5993 2 27.3578 2.15088 28.0656 2.44404C28.7733 2.73719 29.4164 3.16687 29.958 3.70854C30.4997 4.25022 30.9294 4.89328 31.2225 5.60101C31.5157 6.30875 31.6666 7.06729 31.6666 7.83333C31.6666 8.59938 31.5157 9.35792 31.2225 10.0657C30.9294 10.7734 30.4997 11.4164 29.958 11.9581C29.4164 12.4998 28.7733 12.9295 28.0656 13.2226C27.3578 13.5158 26.5993 13.6667 25.8333 13.6667M19.9999 13.6667H14.1666M19.9999 13.6667H25.8333M19.9999 13.6667V25.3333M14.1666 13.6667C12.6195 13.6667 11.1358 14.2812 10.0418 15.3752C8.94783 16.4692 8.33325 17.9529 8.33325 19.5C8.33325 21.0471 8.94783 22.5308 10.0418 23.6248C11.1358 24.7188 12.6195 25.3333 14.1666 25.3333M25.8333 13.6667C25.0672 13.6667 24.3087 13.8175 23.6009 14.1107C22.8932 14.4039 22.2501 14.8335 21.7085 15.3752C21.1668 15.9169 20.7371 16.5599 20.444 17.2677C20.1508 17.9754 19.9999 18.734 19.9999 19.5C19.9999 20.266 20.1508 21.0246 20.444 21.7323C20.7371 22.4401 21.1668 23.0831 21.7085 23.6248C22.2501 24.1665 22.8932 24.5961 23.6009 24.8893C24.3087 25.1824 25.0672 25.3333 25.8333 25.3333C26.5993 25.3333 27.3578 25.1824 28.0656 24.8893C28.7733 24.5961 29.4164 24.1665 29.958 23.6248C30.4997 23.0831 30.9294 22.4401 31.2225 21.7323C31.5157 21.0246 31.6666 20.266 31.6666 19.5C31.6666 18.734 31.5157 17.9754 31.2225 17.2677C30.9294 16.5599 30.4997 15.9169 29.958 15.3752C29.4164 14.8335 28.7733 14.4039 28.0656 14.1107C27.3578 13.8175 26.5993 13.6667 25.8333 13.6667ZM14.1666 25.3333C12.6195 25.3333 11.1358 25.9479 10.0418 27.0419C8.94783 28.1358 8.33325 29.6196 8.33325 31.1667C8.33325 32.7138 8.94783 34.1975 10.0418 35.2915C11.1358 36.3854 12.6195 37 14.1666 37C15.7137 37 17.1974 36.3854 18.2914 35.2915C19.3853 34.1975 19.9999 32.7138 19.9999 31.1667V25.3333M14.1666 25.3333H19.9999" stroke="#5A5A5A" stroke-width="3.5" stroke-linecap="round" stroke-linejoin="round"/>
</svg>
